<svg id="Capa_1" data-name="Capa 1" xmlns="http://www.w3.org/2000/svg" viewBox="0 0 969.8 801"><defs><style>.cls-1{fill:#b03132;}.cls-1,.cls-10,.cls-11,.cls-12,.cls-14,.cls-19,.cls-2,.cls-3,.cls-4,.cls-5,.cls-6,.cls-7,.cls-8,.cls-9{stroke:#1d1d1b;stroke-miterlimit:10;}.cls-1,.cls-12,.cls-2,.cls-9{stroke-width:5px;}.cls-2{fill:#d23737;}.cls-16,.cls-3,.cls-9{fill:#fff;}.cls-19,.cls-3,.cls-4,.cls-5,.cls-6,.cls-7,.cls-8{stroke-width:3px;}.cls-4{fill:#66bceb;}.cls-5{fill:#47ac34;}.cls-6{fill:#f6e83a;}.cls-11,.cls-7{fill:#d41116;}.cls-8{fill:#2b4294;}.cls-10,.cls-15{fill:#353535;}.cls-12{fill:none;}.cls-13{fill:#a8dbf5;}.cls-14{fill:#40aee4;}.cls-17{fill:#1d1d1b;}.cls-18{fill:#f2eac7;}.cls-19{fill:#4fae32;}.cls-20{fill:#87bf5e;}</style></defs><polygon id="pokedex2" class="cls-1" points="484.9 105.7 799.3 105.7 834.5 184.1 967.3 184.1 967.3 798.5 484.9 798.5 484.9 105.7"/><polygon class="cls-2" points="2.5 2.5 2.5 184.1 135.3 184.1 170.5 105.7 484.9 105.7 484.9 2.5 2.5 2.5"/><polygon class="cls-2" points="135.3 184.1 2.5 184.1 2.5 798.5 484.9 798.5 484.9 105.7 170.5 105.7 135.3 184.1"/><circle class="cls-3" cx="81.5" cy="89.7" r="58.4"/><circle class="cls-4" cx="81.5" cy="89.7" r="49.5"/><circle class="cls-5" cx="215.9" cy="56.2" r="15.5"/><circle class="cls-6" cx="264.3" cy="56.2" r="15.5"/><circle class="cls-7" cx="312.7" cy="56.2" r="15.5"/><circle class="cls-8" cx="361.1" cy="56.2" r="15.5"/><circle class="cls-5" cx="626.9" cy="148.1" r="15.5"/><circle class="cls-6" cx="675.3" cy="148.1" r="15.5"/><circle class="cls-7" cx="723.7" cy="148.1" r="15.5"/><circle class="cls-8" cx="772.1" cy="148.1" r="15.5"/><path id="contenedorImg" class="cls-9" d="M92.2,220.9h303a0,0,0,0,1,0,0V528.55a25.15,25.15,0,0,1-25.15,25.15H117.35A25.15,25.15,0,0,1,92.2,528.55V220.9A0,0,0,0,1,92.2,220.9Z"/><circle class="cls-7" cx="139.9" cy="524.65" r="15.5"/><circle class="cls-10" cx="85.19" cy="634.94" r="33.59"/><circle class="cls-10" cx="143.75" cy="689.51" r="33.59"/><circle class="cls-11" cx="226.9" cy="240.9" r="8.55"/><circle class="cls-11" cx="260.5" cy="240.9" r="8.55"/><line class="cls-12" x1="361.1" y1="513.1" x2="326.1" y2="513.1"/><line class="cls-12" x1="361.1" y1="520.8" x2="326.1" y2="520.8"/><line class="cls-12" x1="361.1" y1="528.5" x2="326.1" y2="528.5"/><line class="cls-12" x1="361.1" y1="536.2" x2="326.1" y2="536.2"/><path class="cls-13" d="M77.05,58.74c6.77,7.87,3.62,15.89-4.25,22.66s-17.48,9.73-24.25,1.86a18.8,18.8,0,1,1,28.5-24.52Z" transform="translate(2.5 2.5)"/><rect class="cls-14" x="143.75" y="562.1" width="88.3" height="7.8" rx="1.95"/><rect class="cls-14" x="255.35" y="562.1" width="88.3" height="7.8" rx="1.95"/><rect class="cls-14" x="849.15" y="338.3" width="88.3" height="7.8" rx="1.95" transform="translate(1238 -548.6) rotate(90)"/><rect class="cls-14" x="849.15" y="449.9" width="88.3" height="7.8" rx="1.95" transform="translate(1349.6 -437) rotate(90)"/><rect class="cls-14" x="512.95" y="338.3" width="88.3" height="7.8" rx="1.95" transform="translate(901.8 -212.4) rotate(90)"/><rect class="cls-14" x="512.95" y="449.9" width="88.3" height="7.8" rx="1.95" transform="translate(1013.4 -100.8) rotate(90)"/><path id="contenedorBtnDer" class="cls-15" d="M389.93,671.33h40.64a3.23,3.23,0,0,0,3.23-3.23V645.3a3.23,3.23,0,0,0-3.23-3.23H389.93Z" transform="translate(2.5 2.5)"/><path id="contenedorBtnIzq" class="cls-15" d="M360.68,642.07H320a3.23,3.23,0,0,0-3.23,3.23v22.8a3.23,3.23,0,0,0,3.23,3.23h40.65Z" transform="translate(2.5 2.5)"/><path id="btnArribaAbajo" class="cls-15" d="M360.68,671.33V712a3.23,3.23,0,0,0,3.22,3.23h22.8a3.23,3.23,0,0,0,3.23-3.23V601.43a3.23,3.23,0,0,0-3.23-3.23H363.9a3.23,3.23,0,0,0-3.22,3.23v69.9Z" transform="translate(2.5 2.5)"/><g id="btns"><path id="btnDer" class="cls-16" d="M425.8,657a.81.81,0,0,0,0-.56,2.3,2.3,0,0,0-.06-.28,1.32,1.32,0,0,0-.16-.25.92.92,0,0,0-.13-.21s0,0,0,0,0,0,0,0l-8.3-7.7a1.5,1.5,0,0,0-2.05,2.2l5.5,5.1h-21v3h21l-5.5,5.1a1.5,1.5,0,0,0-.07,2.12,1.47,1.47,0,0,0,1.09.48,1.5,1.5,0,0,0,1-.4l8.3-7.7v0s.05,0,.06,0a.92.92,0,0,0,.13-.21,1.32,1.32,0,0,0,.16-.25A2.3,2.3,0,0,0,425.8,657Z" transform="translate(2.5 2.5)"/><path id="btnIzq" class="cls-16" d="M324.8,657a.81.81,0,0,1,0-.56,2.3,2.3,0,0,1,.06-.28,1.32,1.32,0,0,1,.16-.25.92.92,0,0,1,.13-.21s0,0,0,0,0,0,0,0l8.3-7.7a1.5,1.5,0,0,1,2.05,2.2l-5.5,5.1h21v3h-21l5.5,5.1a1.5,1.5,0,0,1,.07,2.12,1.47,1.47,0,0,1-1.09.48,1.5,1.5,0,0,1-1-.4l-8.3-7.7v0s0,0-.06,0a.92.92,0,0,1-.13-.21,1.32,1.32,0,0,1-.16-.25A2.3,2.3,0,0,1,324.8,657Z" transform="translate(2.5 2.5)"/></g><path class="cls-17" d="M375,707.2a.81.81,0,0,0,.56,0,2.3,2.3,0,0,0,.28-.06,1.32,1.32,0,0,0,.25-.16.92.92,0,0,0,.21-.13s0,0,0,0l0,0,7.7-8.3a1.5,1.5,0,0,0-2.2-2.05l-5.1,5.5V681h-3v21l-5.1-5.5a1.5,1.5,0,0,0-2.12-.07,1.47,1.47,0,0,0-.48,1.09,1.5,1.5,0,0,0,.4,1l7.7,8.3h0s0,.05,0,.06a.92.92,0,0,0,.21.13,1.32,1.32,0,0,0,.25.16A2.3,2.3,0,0,0,375,707.2Z" transform="translate(2.5 2.5)"/><path class="cls-17" d="M375,606.2a.81.81,0,0,1,.56,0,2.3,2.3,0,0,1,.28.06,1.32,1.32,0,0,1,.25.16.92.92,0,0,1,.21.13s0,0,0,0l0,0,7.7,8.3a1.5,1.5,0,0,1-2.2,2.05l-5.1-5.5v21h-3v-21l-5.1,5.5a1.5,1.5,0,0,1-2.12.07,1.47,1.47,0,0,1-.48-1.09,1.5,1.5,0,0,1,.4-1l7.7-8.3h0s0-.05,0-.06a.92.92,0,0,1,.21-.13,1.32,1.32,0,0,1,.25-.16A2.3,2.3,0,0,1,375,606.2Z" transform="translate(2.5 2.5)"/><path class="cls-17" d="M78.27,613a.74.74,0,0,1,.16-.32,2,2,0,0,1,.33-.32,1.81,1.81,0,0,1,.41-.23,1.24,1.24,0,0,1,.41-.08h6.21a1,1,0,0,1,.7.25,3.59,3.59,0,0,1,.44.45l.6,1.39L100.26,647a.71.71,0,0,1-.07.79,1.18,1.18,0,0,1-.92.3h-7a1.5,1.5,0,0,1-.86-.21,1.27,1.27,0,0,1-.47-.69c-.33-.82-.64-1.64-1-2.46s-.61-1.63-.92-2.46H76.23c-.3.83-.62,1.65-.93,2.46s-.63,1.64-.93,2.46a1.22,1.22,0,0,1-1.24.9H66a1.19,1.19,0,0,1-.76-.24.58.58,0,0,1-.11-.73Zm4.41,10.37q-.45,1.25-.93,2.67c-.32,1-.63,1.92-.93,2.89s-.62,1.93-.94,2.87-.62,1.83-.93,2.66h7.44Z" transform="translate(2.5 2.5)"/><path class="cls-17" d="M126.66,670.12a1.17,1.17,0,0,1,.28-.81,1,1,0,0,1,.79-.3h16.1a10.11,10.11,0,0,1,4,.81,10.61,10.61,0,0,1,3.31,2.23,10.74,10.74,0,0,1,2.24,3.32,10.17,10.17,0,0,1,.83,4.09,9.79,9.79,0,0,1-.57,3.38,9,9,0,0,1-1.62,2.8,11.83,11.83,0,0,1,2.77,3.81,11,11,0,0,1,1,4.68,10.55,10.55,0,0,1-.85,4.18,11.45,11.45,0,0,1-2.29,3.47,11.11,11.11,0,0,1-3.37,2.37,9.79,9.79,0,0,1-4.07.87H127.73a1.17,1.17,0,0,1-.78-.26,1,1,0,0,1-.29-.78Zm18.26,9.56a3.58,3.58,0,0,0-.26-1.36,3.38,3.38,0,0,0-.76-1.11,3.46,3.46,0,0,0-1.16-.77,3.84,3.84,0,0,0-1.49-.28h-5.2v7h5.13a4.37,4.37,0,0,0,1.52-.25,3.31,3.31,0,0,0,1.94-1.84A3.46,3.46,0,0,0,144.92,679.68Zm1.29,14.09a4,4,0,0,0-.28-1.46,4.64,4.64,0,0,0-.78-1.3,4.2,4.2,0,0,0-1.19-.93,3.18,3.18,0,0,0-1.49-.36h-6.42v8.1h6.42a3.38,3.38,0,0,0,1.48-.34,4.06,4.06,0,0,0,1.19-.91,4.2,4.2,0,0,0,.79-1.3A4,4,0,0,0,146.21,693.77Z" transform="translate(2.5 2.5)"/><circle class="cls-6" cx="859.26" cy="729.02" r="43.33"/><path class="cls-18" d="M865.82,712.68c-2.54,8.23-9.06,13.84-19.15,19.14-9.36,4.92-19.14-8.57-19.14-19.14a19.14,19.14,0,0,1,19.14-19.15C857.25,693.53,868.93,702.57,865.82,712.68Z" transform="translate(2.5 2.5)"/><circle class="cls-19" cx="592.94" cy="732.13" r="43.33"/><path class="cls-20" d="M599.51,715.78c-2.54,8.24-9.07,13.85-19.15,19.15-9.36,4.92-19.14-8.57-19.14-19.15a19.14,19.14,0,0,1,19.14-19.14C590.94,696.64,602.62,705.68,599.51,715.78Z" transform="translate(2.5 2.5)"/></svg>